# xmcd
#
# Track frame offsets: 
#        187
#        21200
#        43610
#        68977
#        88705
#        106720
#        129427
#        154182
#        172897
#        203450
#        229025
#
# Disc length: 3273 seconds
#
# Revision: 0
# Processed by: cddbd v1.5.2PL0 Copyright (c) Steve Scherf et al.
# Submitted via: ExactAudioCopy v1.3
#
DISCID=800cc70b
DTITLE=Troy Johnson - Plain and Simple (Promo CD)
DYEAR=1993
DGENRE=Funk
TTITLE0=Heaven
TTITLE1=Plain and Simple
TTITLE2=Oh Father
TTITLE3=Good (To Have The Lord In Your Shoes)
TTITLE4=What Are Your Wants
TTITLE5=I Long For You
TTITLE6=New World
TTITLE7=Easy
TTITLE8=Higher Ground
TTITLE9=Wonderful
TTITLE10=You Can Make It
EXTD=
EXTT0=
EXTT1=
EXTT2=
EXTT3=
EXTT4=
EXTT5=
EXTT6=
EXTT7=
EXTT8=
EXTT9=
EXTT10=
PLAYORDER=
